<?xml version="1.0" encoding="UTF-8" standalone="no"?>
<svg width="52.916664mm" height="52.916668mm" viewBox="0 0 52.916664 52.916668" version="1.1" id="svg1" xml:space="preserve" inkscape:export-filename="redline.svg" inkscape:export-xdpi="96" inkscape:export-ydpi="96"
  xmlns:inkscape="http://www.inkscape.org/namespaces/inkscape"
  xmlns:sodipodi="http://sodipodi.sourceforge.net/DTD/sodipodi-0.dtd"
  xmlns="http://www.w3.org/2000/svg"
  xmlns:svg="http://www.w3.org/2000/svg">
  <sodipodi:namedview id="namedview1" pagecolor="#4a4a4a" bordercolor="#000000" borderopacity="0.25" inkscape:showpageshadow="2" inkscape:pageopacity="0.0" inkscape:pagecheckerboard="0" inkscape:deskcolor="#d1d1d1" inkscape:document-units="mm" />
  <defs id="defs1" />
  <g inkscape:label="Layer 1" inkscape:groupmode="layer" id="layer1">
    <g id="g1">
      <g id="g4" transform="translate(-79.913537,-120.31427)">
        <path stroke="#8f108c" vector-effect="non-scaling-stroke" d="m 115.82083,141.08362 q -4.83658,-5.58006 -12.32429,-4.73868 -0.31486,0.0344 -0.14023,0.29898 0.22489,0.34131 0.56356,0.79375 c 3.86556,5.15673 7.06438,10.07268 11.34533,15.64481" id="path2" style="fill:none;stroke-width:0.608542;stroke-linecap:butt" />
        <path stroke="#a11e9f" vector-effect="non-scaling-stroke" d="m 115.2652,153.08248 c 0.23019,0.45508 0.47625,1.58221 -0.22225,1.74625 -0.67998,0.1561 -1.14564,-0.42863 -1.57162,-0.82021" id="path3" style="fill:none;stroke-width:0.608542;stroke-linecap:butt" />
        <path stroke="#a14aa2" vector-effect="non-scaling-stroke" d="m 113.47133,154.00852 c -2.39448,-3.05329 -4.51379,-6.34206 -6.731,-9.52765 q -2.28071,-3.28083 -4.81806,-6.36852 -0.75407,-0.91545 -0.93134,-1.03981 c -0.81491,-0.56092 -2.156351,0.0952 -2.838976,0.66146 a 0.28045833,0.28310416 53.2 0 0 -0.05556,0.37571 l 0.99748,1.47108" id="path4" style="fill:none;stroke-width:0.608542;stroke-linecap:butt" />
        <path stroke="#a2485c" vector-effect="non-scaling-stroke" d="m 97.061871,139.72631 c -2.106084,0.23548 -4.357688,3.21469 -4.407959,5.31019" id="path6" style="fill:none;stroke-width:0.608542;stroke-linecap:butt" />
        <path stroke="#971b9a" vector-effect="non-scaling-stroke" d="m 116.477,157.8635 q 1.88118,-2.32569 2.26483,-5.18583" id="path9" style="fill:none;stroke-width:0.608542;stroke-linecap:butt" />
        <path stroke="#850d86" vector-effect="non-scaling-stroke" d="m 118.74183,152.67767 c 1.09273,-3.937 -0.45244,-8.56721 -2.921,-11.59405" id="path10" style="fill:none;stroke-width:0.608542;stroke-linecap:butt" />
        <path stroke="#e612e3" vector-effect="non-scaling-stroke" d="m 118.74183,152.67767 q -0.3519,-0.22225 -0.64823,-0.51065 c -1.09008,-1.06362 -2.38654,-0.41804 -2.8284,0.91546" id="path11" style="fill:none;stroke-width:0.608542;stroke-linecap:butt" />
        <path stroke="#f84cf9" vector-effect="non-scaling-stroke" d="m 113.47133,154.00852 q 0.127,0.29104 -0.55033,0.127 -0.1323,-0.0318 -0.2593,0.0212 c -0.5371,0.22489 -1.28587,0.71437 -1.8362,0.75671 q -0.12965,0.0106 -0.23284,0.0847 -0.29104,0.20638 -0.56885,0.0397" id="path12" style="fill:none;stroke-width:0.608542;stroke-linecap:butt" />
        <path stroke="#8d4593" vector-effect="non-scaling-stroke" d="m 110.02381,155.03775 c -3.51896,-5.23346 -7.01675,-10.5066 -10.929939,-15.45696" id="path13" style="fill:none;stroke-width:0.608542;stroke-linecap:butt" />
        <path stroke="#964852" vector-effect="non-scaling-stroke" d="m 92.653912,145.0365 q -0.01852,0.3519 0.230188,0.3519 1.116542,0.003 2.452687,-0.24342 1.439334,-0.26723 2.325688,0.65617" id="path14" style="fill:none;stroke-width:0.608542;stroke-linecap:butt" />
        <path stroke="#6f1176" vector-effect="non-scaling-stroke" d="m 96.953392,148.26706 -0.632355,-0.66675 q -0.103187,-0.10848 -0.254,-0.10848 l -1.426104,0.005 a 0.16933333,0.16933333 0 0 0 -0.169333,0.16934 l -0.0026,0.87577 a 0.28310416,0.28310416 0 0 1 -0.373062,0.26723 q -0.844021,-0.28575 -1.733021,-0.24342 a 0.21166666,0.21166666 0 0 0 -0.203729,0.21961 q 0.134937,3.9317 2.137833,7.10141" id="path16" style="fill:none;stroke-width:0.608542;stroke-linecap:butt" />
        <path stroke="#8d1991" vector-effect="non-scaling-stroke" d="m 110.02381,155.03775 3.48985,4.96623 q 0.0847,0.11906 0.21696,0.0476 1.5875,-0.87048 2.74638,-2.1881" id="path18" style="fill:none;stroke-width:0.608542;stroke-linecap:butt" />
        <path stroke="#660b71" vector-effect="non-scaling-stroke" d="m 94.296975,155.88706 c 2.619375,3.95552 7.186085,6.76011 12.035895,6.29709 q 0.11906,-0.0132 0.0529,-0.11113 l -9.432398,-13.80596" id="path19" style="fill:none;stroke-width:0.608542;stroke-linecap:butt" />
        <g id="g3">
          <path fill="#ab04b6" d="m 96.953392,148.26706 c 0.590994,0.81957 6.288268,9.20397 9.432398,13.80596 -0.43727,0.29693 -1.3494,0.1182 -1.96637,0.12766 -4.29044,-0.34263 -8.157185,-3.08963 -10.36549,-6.71281 -1.221628,-2.08708 -2.025473,-4.53617 -2.011867,-6.95449 0.110856,-0.4842 0.145269,-1.4362 0.131829,-1.63229 0.09836,-0.53071 1.01702,-0.10642 1.897814,-0.2487 1.203967,-0.003 1.127856,0.0174 1.808442,0.32284 1.029427,1.08194 0.577163,0.49256 1.073202,1.29202 z" id="path29" style="fill:#ff0000;stroke-width:0.264583" sodipodi:nodetypes="cccccccccc" />
          <g id="g2">
            <path fill="#d403cf" d="m 115.82083,141.08362 c 2.46856,3.02684 4.01373,7.65705 2.921,11.59405 q -0.3519,-0.22225 -0.64823,-0.51065 c -1.09008,-1.06362 -2.38654,-0.41804 -2.8284,0.91546 -4.28095,-5.57213 -7.47977,-10.48808 -11.34533,-15.64481 q -0.33867,-0.45244 -0.56356,-0.79375 -0.17463,-0.26459 0.14023,-0.29898 7.48771,-0.84138 12.32429,4.73868 z" id="path23" style="fill:#ff0000;stroke-width:0.264583" />
            <path fill="#f878fb" d="m 113.47133,154.00852 q 0.127,0.29104 -0.55033,0.127 -0.1323,-0.0318 -0.2593,0.0212 c -0.5371,0.22489 -1.28587,0.71437 -1.8362,0.75671 q -0.12965,0.0106 -0.23284,0.0847 -0.29104,0.20638 -0.56885,0.0397 c -3.51896,-5.23346 -7.01675,-10.5066 -10.929939,-15.45696 l -0.99748,-1.47108 a 0.28045833,0.28310416 53.2 0 1 0.05556,-0.37571 c 0.682625,-0.56621 2.024069,-1.22238 2.838979,-0.66146 q 0.17727,0.12436 0.93134,1.03981 2.53735,3.08769 4.81806,6.36852 c 2.21721,3.18559 4.33652,6.47436 6.731,9.52765 z" id="path24" style="fill:#ff0000;stroke-width:0.264583" />
            <path fill="#fa736f" d="m 97.061871,139.72631 q 0.07144,0.037 0.127,0.11377 c 0.418041,0.56621 -0.428625,1.44727 0.66675,2.07698 q 1.603375,0.91811 2.635249,2.47121 4.826,7.2734 9.8716,14.39333 0.78582,1.11125 1.49755,2.28336 a 0.11377083,0.11641667 62.7 0 1 -0.0529,0.16404 c -0.9816,0.44185 -2.66171,1.00542 -3.44223,-0.11642 q -4.15925,-5.97958 -8.21796,-12.02531 -1.156227,-1.72508 -2.484435,-3.28612 -0.886354,-0.9234 -2.325688,-0.65617 -1.336145,0.24606 -2.452687,0.24342 -0.248708,0 -0.230188,-0.3519 c 0.05027,-2.0955 2.301875,-5.07471 4.407959,-5.31019 z" id="path28" style="fill:#ff0000;stroke-width:0.264583" />
            <path fill="#f820f6" d="m 118.74183,152.67767 q -0.38365,2.86014 -2.26483,5.18583 -1.15888,1.31762 -2.74638,2.1881 -0.13229,0.0714 -0.21696,-0.0476 l -3.48985,-4.96623 q 0.27781,0.16669 0.56885,-0.0397 0.10319,-0.0741 0.23284,-0.0847 c 0.55033,-0.0423 1.2991,-0.53182 1.8362,-0.75671 q 0.127,-0.0529 0.2593,-0.0212 0.67733,0.16404 0.55033,-0.127 c 0.42598,0.39158 0.89164,0.97631 1.57162,0.82021 0.6985,-0.16404 0.45244,-1.29117 0.22225,-1.74625 0.44186,-1.3335 1.73832,-1.97908 2.8284,-0.91546 q 0.29633,0.2884 0.64823,0.51065 z" id="path30" style="fill:#ff0000;stroke-width:0.264583" />
          </g>
        </g>
      </g>
    </g>
  </g>
</svg>
